<?xml version="1.0" standalone="no"?>
<!DOCTYPE svg PUBLIC "-//W3C//DTD SVG 20010904//EN"
 "http://www.w3.org/TR/2001/REC-SVG-20010904/DTD/svg10.dtd">
<svg version="1.0" xmlns="http://www.w3.org/2000/svg"
 width="510.000000pt" height="510.000000pt" viewBox="0 0 510.000000 510.000000"
 preserveAspectRatio="xMidYMid meet">
<metadata>
Created by potrace 1.16, written by Peter Selinger 2001-2019
</metadata>
<g transform="translate(0.000000,510.000000) scale(0.100000,-0.100000)"
fill="#666666" stroke="none">
<path d="M0 2550 l0 -2550 2550 0 2550 0 0 2550 0 2550 -2550 0 -2550 0 0
-2550z m2760 1760 c265 -74 455 -265 531 -535 32 -113 32 -296 0 -411 -74
-266 -269 -461 -535 -535 -115 -32 -298 -32 -411 0 -106 30 -186 69 -268 131
-360 273 -395 832 -72 1155 112 113 264 190 423 215 84 13 246 3 332 -20z m37
-2005 c553 -73 1043 -292 1208 -540 43 -65 75 -153 75 -206 0 -31 -12 -52 -69
-126 -68 -87 -213 -236 -301 -309 -78 -64 -251 -174 -355 -225 -377 -183 -799
-234 -1201 -144 -154 35 -262 73 -409 145 -254 125 -484 312 -656 533 -78 101
-83 123 -50 220 68 197 298 374 657 505 370 136 773 189 1101 147z"/>
</g>
</svg>
